<svg width="26" height="23" viewBox="0 0 26 23" fill="none" xmlns="http://www.w3.org/2000/svg">
<path fill-rule="evenodd" clip-rule="evenodd" d="M6.045 18.72L0 15.6V6.67056L13.455 0L19.5 3.12V12.09L6.045 18.72Z" fill="#D2042D"/>
<path fill-rule="evenodd" clip-rule="evenodd" d="M0 14.9641V15.7397L6.03018 18.842L19.4519 12.2494V11.4739L6.03018 18.0664L0 14.9641ZM0 13.6069V14.3825L6.03018 17.4848L19.4519 10.8925V10.1167L6.03018 16.7092L0 13.6069ZM0 10.8922V11.6678L6.03018 14.7701L19.4519 8.17784V7.40226L6.03018 13.9946L0 10.8922ZM0 12.2494V13.025L6.03018 16.1273L19.4519 9.53478V8.7592L6.03018 15.352L0 12.2494ZM0 9.53504V10.3106L6.03018 13.4129L19.4519 6.82038V6.04506L6.03018 12.6374L0 9.53504ZM6.04526 9.91516L0 6.7819V7.56528L6.04526 10.6983L19.5008 4.04046V3.25708L6.04526 9.91516ZM0 8.17784V8.95342L6.04526 12.0557L19.5008 5.46318V4.6876L6.04526 11.2802L0 8.17784Z" fill="#FF7377"/>
<path fill-rule="evenodd" clip-rule="evenodd" d="M12.5146 22.0699L6.49951 18.9673V11.3483L19.8882 4.75598L26 7.8778V15.4178L12.5146 22.0699Z" fill="#D2042D"/>
<path fill-rule="evenodd" clip-rule="evenodd" d="M6.5 18.2221V18.9977L12.545 22.1L26 15.5075V14.7319L12.545 21.3245L6.5 18.2221ZM6.5 16.8649V17.6405L12.545 20.7428L26 14.1503V13.3747L12.545 19.967L6.5 16.8649ZM6.5 14.1503V14.9259L12.545 18.0282L26 11.4356V10.66L12.545 17.2526L6.5 14.1503ZM6.5 15.5075V16.2831L12.545 19.3856L26 12.7931V12.0175L12.545 18.6098L6.5 15.5075ZM6.5 12.7931V13.5687L12.545 16.671L26 10.0784V9.30284L12.545 15.8954L6.5 12.7931ZM12.545 14.4485L6.5 11.3464V12.122L12.545 15.2243L26 8.63178V7.8562L12.545 14.4485Z" fill="#FF7377"/>
<path opacity="0.1" d="M6.03018 9.92297L0 6.82507V15.7545L6.045 18.8501L6.03018 9.92297ZM12.5302 14.4561L6.5 11.3582V18.9741L12.545 22.0697L12.5302 14.4561Z" fill="#0A0A0A"/>
<path fill-rule="evenodd" clip-rule="evenodd" d="M15.5989 11.3384L12.6446 12.7577L10.122 11.4005L13.5379 9.72713C13.5379 9.72713 13.3008 9.04593 13.4459 8.94219C13.4433 8.95441 8.40552 11.4621 8.40552 11.4621L12.7171 13.6178L17.1496 11.4018C17.1496 11.4018 16.7156 11.4161 16.3311 11.4002C15.9406 11.3846 15.5989 11.3384 15.5989 11.3384ZM19.0949 10.4294L24.31 7.93001L20.0722 5.62927L15.6439 7.84317C16.3152 7.80859 16.8651 8.09745 16.8651 8.09745L20.0179 6.55305L22.7344 7.91051L19.097 9.65771L19.0949 10.4294Z" fill="#FF7377"/>
<path d="M16.7011 10.3892C16.8769 10.3946 17.0522 10.368 17.2185 10.3106L16.3009 9.82444L16.2229 9.84472L16.1231 9.8767C15.9871 9.91752 15.8478 9.95522 15.7045 9.98928C15.5612 10.0233 15.4156 10.0447 15.2677 10.0532C15.1198 10.0618 14.9721 10.053 14.8252 10.027C14.6712 9.99859 14.5227 9.94622 14.385 9.87176C14.2358 9.79272 14.132 9.70796 14.074 9.61774C14.0161 9.52726 13.9945 9.4373 14.009 9.34734C14.0236 9.25738 14.0704 9.16898 14.1489 9.0824C14.2366 8.98833 14.3374 8.90741 14.4482 8.84216L14.1102 8.66302L14.3652 8.52782L14.7032 8.70696C14.8492 8.64531 15 8.59574 15.1541 8.55876C15.3102 8.52107 15.4697 8.49886 15.6301 8.49246C15.7945 8.48649 15.959 8.49843 16.1208 8.52808C16.2905 8.55934 16.4554 8.61284 16.6111 8.6872L15.9973 9.01246C15.8704 8.95023 15.7318 8.91575 15.5906 8.91132C15.4396 8.90456 15.315 8.92718 15.217 8.97918L15.9941 9.39102L16.1265 9.3489L16.2718 9.30444C16.5435 9.22254 16.7804 9.17392 16.9819 9.15832C17.1834 9.14324 17.3586 9.14584 17.5071 9.16638C17.6555 9.18718 17.7816 9.21968 17.8854 9.26362C17.9891 9.30808 18.0778 9.34968 18.1508 9.38842C18.2153 9.42248 18.2806 9.47396 18.3469 9.54286C18.4132 9.61176 18.4522 9.69262 18.4636 9.7857C18.4753 9.87878 18.4483 9.98148 18.3833 10.0935C18.318 10.2056 18.1846 10.3229 17.9834 10.4453L18.3565 10.6432L18.1014 10.7784L17.7283 10.5805C17.382 10.7391 17.0289 10.8192 16.6688 10.8208C16.3087 10.8226 15.9416 10.7394 15.5672 10.5714L16.1767 10.2485C16.3373 10.3376 16.5174 10.3859 16.7011 10.3892ZM17.5981 10.0696C17.6353 10.0298 17.6587 9.98876 17.6683 9.94638C17.6777 9.90308 17.6709 9.85781 17.649 9.81924C17.6267 9.77686 17.5804 9.73708 17.5099 9.6999C17.3988 9.64007 17.2732 9.61235 17.1472 9.61982C17.0196 9.6271 16.8472 9.66324 16.6304 9.7285L17.4733 10.1752C17.519 10.1452 17.5609 10.1097 17.5981 10.0696ZM14.8408 9.20174C14.8118 9.22931 14.7918 9.26503 14.7836 9.30418C14.7804 9.32287 14.7811 9.34201 14.7854 9.36045C14.7898 9.3789 14.7978 9.39628 14.8091 9.41156C14.8327 9.44718 14.8754 9.48124 14.937 9.51374C15.0337 9.56496 15.1385 9.58862 15.2516 9.58446C15.3647 9.5803 15.5066 9.54988 15.6772 9.49372L14.9614 9.11464C14.9169 9.13721 14.8762 9.1666 14.8408 9.20174Z" fill="#FF7377"/>
<path fill-rule="evenodd" clip-rule="evenodd" d="M8.99152 6.65842L6.03714 8.07776L3.51462 6.72056L6.9305 5.0472C6.9305 5.0472 6.69312 4.366 6.83846 4.26226C6.83586 4.27448 1.7981 6.78218 1.7981 6.78218L6.10968 8.93784L10.5422 6.72186C10.5422 6.72186 10.1082 6.73616 9.72368 6.7203C9.33316 6.7047 8.99152 6.65842 8.99152 6.65842ZM12.4875 5.74946L17.7026 3.25008L13.4648 0.949341L9.0365 3.16324C9.70782 3.12866 10.2577 3.41752 10.2577 3.41752L13.4105 1.87312L16.127 3.23058L12.4898 4.97778L12.4875 5.74946Z" fill="#FF7377"/>
<path d="M10.0937 5.70921C10.2695 5.71475 10.4448 5.68814 10.6111 5.63069L9.69327 5.14449L9.61527 5.16477L9.51543 5.19675C9.37701 5.2383 9.23742 5.27585 9.09683 5.30933C8.95357 5.34339 8.80797 5.36471 8.66003 5.37329C8.51209 5.38187 8.36467 5.37303 8.21751 5.34703C8.06357 5.31865 7.91503 5.26627 7.77733 5.19181C7.62809 5.11277 7.52435 5.02801 7.46637 4.93779C7.40839 4.84731 7.38681 4.75735 7.40137 4.66739C7.41619 4.57743 7.46273 4.48929 7.54125 4.40271C7.62892 4.30864 7.72971 4.22773 7.84051 4.16247L7.50251 3.98333L7.75757 3.84813L8.09557 4.02727C8.24154 3.96562 8.39233 3.91606 8.54641 3.87907C8.70253 3.84138 8.86199 3.81918 9.02247 3.81277C9.18682 3.8068 9.35133 3.81875 9.51309 3.84839C9.68283 3.87965 9.8477 3.93316 10.0035 4.00751L9.38959 4.33277C9.26277 4.27054 9.12415 4.23606 8.98295 4.23163C8.83189 4.22487 8.70735 4.24749 8.60933 4.29949L9.38647 4.71133L9.51881 4.66895L9.66415 4.62449C9.93585 4.54259 10.1727 4.49397 10.3742 4.47837C10.5757 4.46303 10.751 4.46589 10.8994 4.48643C11.0479 4.50723 11.174 4.53973 11.2777 4.58393C11.3815 4.62839 11.4701 4.66999 11.5432 4.70873C11.6077 4.74279 11.6729 4.79427 11.7392 4.86317C11.8055 4.93207 11.8445 5.01293 11.856 5.10601C11.8677 5.19909 11.8406 5.30179 11.7756 5.41385C11.7104 5.52591 11.577 5.64317 11.3757 5.76563L11.7488 5.96349L11.4938 6.09869L11.1207 5.90083C10.7744 6.05943 10.4213 6.13951 10.0612 6.14107C9.70107 6.14289 9.33395 6.05969 8.95955 5.89173L9.56899 5.56881C9.73279 5.65851 9.90777 5.70531 10.0937 5.70921ZM10.9907 5.38967C11.0279 5.34989 11.0513 5.30881 11.0606 5.26643C11.0701 5.22313 11.0632 5.17786 11.0414 5.13929C11.019 5.09691 10.9727 5.05713 10.9023 5.01969C10.7911 4.95987 10.6656 4.93214 10.5396 4.93961L10.0227 5.04855L10.8656 5.49523C10.9119 5.46481 10.9535 5.42971 10.9907 5.38967ZM8.23337 4.52179C8.20437 4.54936 8.18443 4.58508 8.17617 4.62423C8.17302 4.64293 8.17365 4.66206 8.17803 4.68051C8.1824 4.69895 8.19044 4.71633 8.20165 4.73161C8.22557 4.76723 8.26795 4.80129 8.32957 4.83379C8.42629 4.88501 8.53107 4.90867 8.64443 4.90451C8.75753 4.90035 8.89949 4.86993 9.07005 4.81377L8.35427 4.43469C8.30965 4.4572 8.26885 4.48659 8.23337 4.52179Z" fill="#FF7377"/>
</svg>
